<svg xmlns="http://www.w3.org/2000/svg" viewBox="0 0 512 512">
  <rect x="0" y="0" width="512" height="512" rx="60" fill="#282c34" />
  <g transform="translate(64, 64) scale(0.75)">
    <path fill="#f05033" d="M440.5 386.7L437.7 389.1L210.5 111.9V111.8L207.7 114.2C206.8 113.3 205.7 112.6 204.5 112L201.7 114.3L201.7 114.3L198.9 112L32.3 308.3L32.3 308.3L29.5 310.7C27.3 314.9 28.7 320 32.8 322.3C36.8 324.5 41.9 323.1 44.2 319.1L197.7 135.7L184.6 123.3L345.1 320.1L357.9 331.1L210.9 111.9L395.9 335.5L304.1 256.4L297.8 250.8L297.8 250.8L366.2 321.6L372.7 327.4L372.7 327.4L372.7 327.4L372.7 327.4L368.5 331L435.2 382.8L435.2 382.8L440.5 386.7Z" />
    <path fill="#ffffff" d="M439.6 385.9L436.8 388.3L209.6 111.1V111L206.8 113.4C205.9 112.5 204.8 111.8 203.6 111.2L200.8 113.5L200.8 113.5L198 111.2L31.4 307.5L31.4 307.5L28.6 309.9C26.4 314.1 27.8 319.2 31.9 321.5C35.9 323.7 41 322.3 43.3 318.3L196.8 134.9L183.7 122.5L344.2 319.3L357 330.3L210 111.1L395 334.7L303.2 255.6L296.9 250L296.9 250L365.3 320.8L371.8 326.6L371.8 326.6L371.8 326.6L371.8 326.6L367.6 330.2L434.3 382L434.3 382L439.6 385.9Z" />
    <circle cx="208" cy="111" r="40" fill="#4caf50" />
    <circle cx="367" cy="330" r="40" fill="#4caf50" />
    <circle cx="301" cy="250" r="25" fill="#f44336" />
    <path fill="#ffffff" d="M120 440 L390 440 Q 410 440 410 420 L410 412 Q 410 400 398 400 L112 400 Q 100 400 100 412 L100 420 Q 100 440 120 440 Z" />
    <rect x="120" y="410" width="270" height="10" rx="2" fill="#282c34" />
    <rect x="130" y="415" width="50" height="5" rx="2" fill="#4caf50" />
    <rect x="190" y="415" width="30" height="5" rx="2" fill="#f44336" />
    <rect x="230" y="415" width="40" height="5" rx="2" fill="#2196f3" />
    <rect x="280" y="415" width="20" height="5" rx="2" fill="#ff9800" />
  </g>
</svg>