<svg xmlns="http://www.w3.org/2000/svg" viewBox="0 0 24 24">
  <rect x="0" y="0" width="24" height="24" rx="2" fill="#282c34" />
  <g transform="translate(2, 2) scale(0.85)">
    <path fill="#f05033" d="M20.7 18.8L20.6 18.9L9.9 5.4V5.4L9.8 5.5C9.7 5.5 9.7 5.4 9.6 5.4L9.5 5.5L9.5 5.5L9.4 5.4L1.5 14.8L1.5 14.8L1.4 14.9C1.3 15.1 1.3 15.3 1.5 15.5C1.7 15.6 2 15.6 2.1 15.4L9.3 6.5L8.7 5.9L16.2 15.2L16.8 15.8L9.9 5.4L18.6 15.9L14.3 12.2L14 11.9L14 11.9L17.2 15.3L17.5 15.6L17.5 15.6L17.5 15.6L17.5 15.6L17.3 15.7L20.4 18.6L20.4 18.6L20.7 18.8Z" />
    <circle cx="10" cy="5.5" r="1.8" fill="#4caf50" />
    <circle cx="17" cy="15.5" r="1.8" fill="#4caf50" />
    <circle cx="14" cy="12" r="1.2" fill="#f44336" />
  </g>
</svg>